<?xml version="1.0" encoding="UTF-8"?>
<svg version="1.1" viewBox="0 0 1000 1080" width="1000" height="1080" xmlns="http://www.w3.org/2000/svg">
<path transform="translate(810,146)" d="m0 0h8l3 2v9l-7 28-6 15-8 16-6 11-5 9-5 8-4 6-7 10-4 6-6 8-8 11-7 8-8 10-9 11-8 8-7 9-9 11-9 9-11 8-5 8 1 6 2 2 7-1 4-3h2l-1 7-5 14-5 15-7 19-4 11-4 10-4 13-4 11-8 24-5 12-5-1-12-13-6-7-6-4-4-4v-2h-2l-7-8-2-2v-6l3-4h2l2-5 1-5-6-3-4 1-8 6-6 5h-2l-2 4-9 9-6 9-12 11-6 4-10 9-7 7-7 8-9 10-6 4-10 11-1 5 3 2 25 1 2 1 18 1 7 2 22 1 2 1 20 1 1 1 22 1 3 1 11 1-2 4-11 8-9 5-10 7-15 9-9 6-11 7-9 6-12 7-8 5-9 6-8 5-9 6-20 12-9 6-16 10-11 7-10 7-15 9-9 6-11 7-12 7-9 6-11 7-10 6-9 6-11 7-13 8-9 6-11 7-9 6-24 15-13 8-10 7-7 4-10 7-20 12-8 5-6 4-24 15-2-1 14-16 8-6 11-12 16-15 1-2h2l2-4 9-9 7-8 15-14 12-13 12-11 16-17 5-5 10-9 9-10 7-8 8-6 14-15 11-12 5-3 7-8 8-9 8-6 3-4h2l2-4 1-1v-7h-17l-2-1-16-1-2-1-11-1-2-1-16-1-5-2-12-1-3-1-15-1-1-1-14-1-5-2 1-4 11-12 5-6 8-6 13-14 5-3 7-8 16-17 10-9 14-15 5-3 7-8 6-7h2l2-4 10-9h2l2-4 9-9 6-7 6-4 9-10 5-6h2l2-4 8-7 9-6h2l2-7 9-10 16-15 8-9 6-4 36-39 2-3v-6h-8l-6 3-17 16-4 5-8 6-6 7-5 1-7-8-6-4-14-15-8-9-6-4-1-4 1-2 10-3 7-3 22-7 16-6 21-7 10-4 22-8 13-4 13-5h2l-1 4-8 6-6 9-5 5-1 8v2l9-1 10-9 15-14 2-3h2l2-4 13-13 8-7 5-5 10-9 11-9 5-4 4-4 10-8 10-7 13-10 11-7 9-6 10-6 14-8 24-11 10-3 7-3 17-4z" fill="#F7941D"/>
<path transform="translate(810,146)" d="m0 0h8l3 2v9l-7 28-6 15-8 16-6 11-5 9-5 8-4 6-7 10-4 6-6 8-8 11-7 8-8 10-9 11-8 8-7 9-9 11-9 9-11 8-5 8 1 6 2 2 7-1 4-3h2l-1 7-5 14-5 15-7 19-4 11-4 10-4 13-4 11-8 24-5 12-5-1-12-13-6-7-6-4-4-4v-2h-2l-7-8-2-2v-6l3-4h2l2-5 1-5-6-3-4 1-8 6-6 5h-2l-2 4-27 27-10-1-15-6-2-2 1-2h2l2-4 5-5 6-5 6-7 5-5 5-4 7-8 2-3-11-11-4 2-41 41-4-2-8-7-6-7 2-4 41-41-2-4-9-9-4 2-39 39-3-4-5-13-1-8 7-8 17-16 8-9 6-4 36-39 2-3v-6h-8l-6 3-17 16-4 5-8 6-6 7-5 1-7-8-6-4-14-15-8-9-6-4-1-4 1-2 10-3 7-3 22-7 16-6 21-7 10-4 22-8 13-4 13-5h2l-1 4-8 6-6 9-5 5-1 8v2l9-1 10-9 15-14 2-3h2l2-4 13-13 8-7 5-5 10-9 11-9 5-4 4-4 10-8 10-7 13-10 11-7 9-6 10-6 14-8 24-11 10-3 7-3 17-4z" fill="#BF1E2E"/>
<path transform="translate(684,361)" d="m0 0v3l-2 3 1 6 2 2 7-1 4-3h2l-1 7-5 14-5 15-7 19-4 11-4 10-4 13-4 11-8 24-5 12-5-1-12-13-6-7-6-4-4-4v-2h-2l-7-8-2-2v-6l3-4h2l2-5 1-5-6-3-4 1-5 2 6-7z" fill="#BF2030"/>
<path transform="translate(595,268)" d="m0 0h2l-1 4-8 6-6 9-5 5-1 8v2h8l-6 7-20 20h-1l-1-6h-8l-6 3-17 16-4 5-8 6-6 7-5 1-7-8-6-4-14-15-8-9-6-4-1-4 1-2 10-3 7-3 22-7 16-6 21-7 10-4 22-8 13-4z" fill="#BF2030"/>
<path transform="translate(530,391)" d="m0 0 4 2 10 10-2 4-41 41 2 4 6 7 7 6 4-2 41-41 4 2 10 10-6 7-4 5-6 5-5 5-5 6-6 5-5 5-2 3h-2l1 3 15 6 10 1 14-14 1 2-7 8-20 16-13-5-16-9-11-8-12-11-8-10-10-16-8-16 1-4 6-2 2-7 2 3 5 15 3 5z" fill="#FDFDFD"/>
<path transform="translate(677,257)" d="m0 0h13l9 4 8 9 2 5v14l-4 8-7 7-7 3h-14l-8-4-7-7-3-7v-14l4-8 9-8z" fill="#FDFDFD"/>
<path transform="translate(684,361)" d="m0 0v3l-2 3 1 6 2 2 5 1-73 73-5-5-6-1-4 3-2-1z" fill="#FDFDFD"/>
<path transform="translate(584,281)" d="m0 0 1 2-7 8-2 4v7h8l-6 7-20 20h-1l-1-6h-8l-5 1 6-7 33-33z" fill="#FDFDFD"/>
<path transform="translate(714,331)" d="m0 0v3l-12 13-9 8-2-1z" fill="#FDFDFD"/>
</svg>
